<?xml version="1.0" encoding="UTF-8"?>
<svg xmlns="http://www.w3.org/2000/svg" width="1280" height="640" viewBox="0 0 1280 640">
<defs>
<linearGradient id="bg" x1="0" y1="0" x2="1" y2="1">
<stop offset="0%" stop-color="#09090B"/>
<stop offset="50%" stop-color="#312E81"/>
<stop offset="100%" stop-color="#0F172A"/>
<animate attributeName="x2" values="1;0.2;1" dur="8s" repeatCount="indefinite"/>
</linearGradient>
<linearGradient id="title" x1="0" y1="0" x2="1" y2="0">
<stop offset="0%" stop-color="#8B5CF6"/>
<stop offset="100%" stop-color="#22D3EE"/>
</linearGradient>
<filter id="glow"><feGaussianBlur stdDeviation="3" result="b"/><feMerge><feMergeNode in="b"/><feMergeNode in="SourceGraphic"/></feMerge></filter>
</defs>
<rect width="1280" height="640" fill="url(#bg)"/>
<g opacity="0.08">

<line x1="0" y1="0" x2="0" y2="640" stroke="#fff" stroke-width="1"/>
<line x1="40" y1="0" x2="40" y2="640" stroke="#fff" stroke-width="1"/>
<line x1="80" y1="0" x2="80" y2="640" stroke="#fff" stroke-width="1"/>
<line x1="120" y1="0" x2="120" y2="640" stroke="#fff" stroke-width="1"/>
<line x1="160" y1="0" x2="160" y2="640" stroke="#fff" stroke-width="1"/>
<line x1="200" y1="0" x2="200" y2="640" stroke="#fff" stroke-width="1"/>
<line x1="240" y1="0" x2="240" y2="640" stroke="#fff" stroke-width="1"/>
<line x1="280" y1="0" x2="280" y2="640" stroke="#fff" stroke-width="1"/>
<line x1="320" y1="0" x2="320" y2="640" stroke="#fff" stroke-width="1"/>
<line x1="360" y1="0" x2="360" y2="640" stroke="#fff" stroke-width="1"/>
<line x1="400" y1="0" x2="400" y2="640" stroke="#fff" stroke-width="1"/>
<line x1="440" y1="0" x2="440" y2="640" stroke="#fff" stroke-width="1"/>
<line x1="480" y1="0" x2="480" y2="640" stroke="#fff" stroke-width="1"/>
<line x1="520" y1="0" x2="520" y2="640" stroke="#fff" stroke-width="1"/>
<line x1="560" y1="0" x2="560" y2="640" stroke="#fff" stroke-width="1"/>
<line x1="600" y1="0" x2="600" y2="640" stroke="#fff" stroke-width="1"/>
<line x1="640" y1="0" x2="640" y2="640" stroke="#fff" stroke-width="1"/>
<line x1="680" y1="0" x2="680" y2="640" stroke="#fff" stroke-width="1"/>
<line x1="720" y1="0" x2="720" y2="640" stroke="#fff" stroke-width="1"/>
<line x1="760" y1="0" x2="760" y2="640" stroke="#fff" stroke-width="1"/>
<line x1="800" y1="0" x2="800" y2="640" stroke="#fff" stroke-width="1"/>
<line x1="840" y1="0" x2="840" y2="640" stroke="#fff" stroke-width="1"/>
<line x1="880" y1="0" x2="880" y2="640" stroke="#fff" stroke-width="1"/>
<line x1="920" y1="0" x2="920" y2="640" stroke="#fff" stroke-width="1"/>
<line x1="960" y1="0" x2="960" y2="640" stroke="#fff" stroke-width="1"/>
<line x1="1000" y1="0" x2="1000" y2="640" stroke="#fff" stroke-width="1"/>
<line x1="1040" y1="0" x2="1040" y2="640" stroke="#fff" stroke-width="1"/>
<line x1="1080" y1="0" x2="1080" y2="640" stroke="#fff" stroke-width="1"/>
<line x1="1120" y1="0" x2="1120" y2="640" stroke="#fff" stroke-width="1"/>
<line x1="1160" y1="0" x2="1160" y2="640" stroke="#fff" stroke-width="1"/>
<line x1="1200" y1="0" x2="1200" y2="640" stroke="#fff" stroke-width="1"/>
<line x1="1240" y1="0" x2="1240" y2="640" stroke="#fff" stroke-width="1"/>
<line x1="1280" y1="0" x2="1280" y2="640" stroke="#fff" stroke-width="1"/>
<line x1="0" y1="0" x2="1280" y2="0" stroke="#fff" stroke-width="1"/>
<line x1="0" y1="40" x2="1280" y2="40" stroke="#fff" stroke-width="1"/>
<line x1="0" y1="80" x2="1280" y2="80" stroke="#fff" stroke-width="1"/>
<line x1="0" y1="120" x2="1280" y2="120" stroke="#fff" stroke-width="1"/>
<line x1="0" y1="160" x2="1280" y2="160" stroke="#fff" stroke-width="1"/>
<line x1="0" y1="200" x2="1280" y2="200" stroke="#fff" stroke-width="1"/>
<line x1="0" y1="240" x2="1280" y2="240" stroke="#fff" stroke-width="1"/>
<line x1="0" y1="280" x2="1280" y2="280" stroke="#fff" stroke-width="1"/>
<line x1="0" y1="320" x2="1280" y2="320" stroke="#fff" stroke-width="1"/>
<line x1="0" y1="360" x2="1280" y2="360" stroke="#fff" stroke-width="1"/>
<line x1="0" y1="400" x2="1280" y2="400" stroke="#fff" stroke-width="1"/>
<line x1="0" y1="440" x2="1280" y2="440" stroke="#fff" stroke-width="1"/>
<line x1="0" y1="480" x2="1280" y2="480" stroke="#fff" stroke-width="1"/>
<line x1="0" y1="520" x2="1280" y2="520" stroke="#fff" stroke-width="1"/>
<line x1="0" y1="560" x2="1280" y2="560" stroke="#fff" stroke-width="1"/>
<line x1="0" y1="600" x2="1280" y2="600" stroke="#fff" stroke-width="1"/>
<line x1="0" y1="640" x2="1280" y2="640" stroke="#fff" stroke-width="1"/>

</g>
<rect x="60" y="60" width="700" height="520" rx="22" fill="#0B1020" fill-opacity="0.55" stroke="#7C3AED"/>
<text x="90" y="105" font-family="monospace" font-size="24" fill="#22D3EE">user@raunakiitp:~$</text>
<text x="90" y="145" font-family="monospace" font-size="20" fill="#E5E7EB">Initializing AI Environment...</text>
<rect x="90" y="170" width="420" height="14" rx="7" fill="#1F2937"/>
<rect x="90" y="170" width="0" height="14" rx="7" fill="#8B5CF6">
<animate attributeName="width" values="0;420" dur="3s" fill="freeze"/>
</rect>
<text x="90" y="250" font-family="Arial" font-size="58" font-weight="700" fill="url(#title)" filter="url(#glow)">RAUNAK YADAV</text>
<text x="90" y="300" font-family="Arial" font-size="28" fill="#fff">AI Engineer • Full Stack Developer • IIT Patna</text>
<text x="90" y="350" font-family="Arial" font-size="24" fill="#CBD5E1">Building Intelligent Products That Solve Real Problems</text>

<rect x="90" y="390" width="102" height="34" rx="17" fill="#111827" stroke="#22D3EE" stroke-opacity="0.5"/>
<text x="105" y="413" font-family="monospace" font-size="18" fill="#22D3EE">Python</text>
<rect x="212" y="390" width="90" height="34" rx="17" fill="#111827" stroke="#22D3EE" stroke-opacity="0.5"/>
<text x="227" y="413" font-family="monospace" font-size="18" fill="#22D3EE">React</text>
<rect x="322" y="390" width="114" height="34" rx="17" fill="#111827" stroke="#22D3EE" stroke-opacity="0.5"/>
<text x="337" y="413" font-family="monospace" font-size="18" fill="#22D3EE">Next.js</text>
<rect x="456" y="390" width="150" height="34" rx="17" fill="#111827" stroke="#22D3EE" stroke-opacity="0.5"/>
<text x="471" y="413" font-family="monospace" font-size="18" fill="#22D3EE">TypeScript</text>
<rect x="90" y="450" width="114" height="34" rx="17" fill="#111827" stroke="#22D3EE" stroke-opacity="0.5"/>
<text x="105" y="473" font-family="monospace" font-size="18" fill="#22D3EE">Node.js</text>
<rect x="224" y="450" width="126" height="34" rx="17" fill="#111827" stroke="#22D3EE" stroke-opacity="0.5"/>
<text x="239" y="473" font-family="monospace" font-size="18" fill="#22D3EE">Firebase</text>
<rect x="370" y="450" width="102" height="34" rx="17" fill="#111827" stroke="#22D3EE" stroke-opacity="0.5"/>
<text x="385" y="473" font-family="monospace" font-size="18" fill="#22D3EE">OpenAI</text>
<rect x="492" y="450" width="102" height="34" rx="17" fill="#111827" stroke="#22D3EE" stroke-opacity="0.5"/>
<text x="507" y="473" font-family="monospace" font-size="18" fill="#22D3EE">Docker</text>

<rect x="820" y="70" width="390" height="500" rx="28" fill="#101828" fill-opacity="0.55" stroke="#22D3EE"/>
<circle cx="1015" cy="250" r="110" fill="#1E293B" stroke="#8B5CF6" stroke-width="3"/>
<circle cx="1015" cy="205" r="38" fill="#F2C9A5"/>
<path d="M965 320 Q1015 255 1065 320" fill="#3B82F6"/>
<path d="M977 188 Q1015 140 1053 188" fill="#111827"/>
<rect x="900" y="140" width="230" height="3" fill="#22D3EE">
<animate attributeName="y" values="140;360;140" dur="3.5s" repeatCount="indefinite"/>
</rect>
<text x="1015" y="430" text-anchor="middle" font-family="Arial" font-size="20" fill="#E5E7EB">AI COMMAND CENTER</text>
<text x="1015" y="465" text-anchor="middle" font-family="Arial" font-size="18" fill="#94A3B8">github.com/raunakiitp</text>
<circle cx="1180" cy="110" r="3" fill="#22D3EE"><animate attributeName="cy" values="110;90;110" dur="2.8s" repeatCount="indefinite"/></circle>
<circle cx="860" cy="520" r="2" fill="#22D3EE"><animate attributeName="cy" values="520;500;520" dur="2.2s" repeatCount="indefinite"/></circle>
<circle cx="760" cy="70" r="2" fill="#22D3EE"><animate attributeName="cy" values="70;55;70" dur="3s" repeatCount="indefinite"/></circle>
</svg>
